<svg width="127" height="30" viewBox="0 0 127 30" fill="none" xmlns="http://www.w3.org/2000/svg">
<g filter="url(#filter0_i_1_45)">
<path d="M6.42818 2.63667V3.09L7.58815 4.45L1.73893 27.5167L0.603638 28.8767V29.3033H7.73623V28.8767L6.60094 27.5167L6.82306 26.6633L13.388 21.7567L14.7701 27.5167L13.6101 28.8767V29.3033H20.7427V28.8767L19.6074 27.5167L14.1037 4.45L15.239 3.09V2.63667H6.42818ZM10.7966 10.93L12.1293 16.53L8.74812 19.0633L10.7966 10.93Z" fill="#FA4776"/>
<path d="M23.216 6.21V6.63667L24.3512 7.99667V25.9433L23.216 27.2767V27.73H30.1758V27.2767L29.0405 25.9433V21.73L37.0369 15.7567L37.0616 8.69L33.7791 6.21H23.216ZM29.0405 11.2767H31.5826L32.3723 11.8633V13.09L29.0405 15.57V11.2767Z" fill="#FA4776"/>
<path d="M40.6705 6.21V6.63667L41.8058 7.99667V25.9167L40.6705 27.2767V27.7033H46.495V16.6633L52.1468 27.7033H57.996V27.2767L56.8361 25.9167V7.99667L57.996 6.63667V6.21H52.1468V17.25L46.5197 6.21H40.6705Z" fill="#FA4776"/>
<path d="M64.9794 6.21V6.63667L66.1394 7.99667L61.5982 25.9167L60.4629 27.2767V27.7033H67.5955V27.2767L66.4602 25.9167L66.6576 25.1167L72.2354 20.93L73.4447 25.9167L72.2847 27.2767V27.7033H79.4173V27.2767L78.282 25.9167L74.0124 7.99667L75.1476 6.63667V6.21H64.9794ZM70.0388 11.73L71.0014 15.7033L68.5827 17.5167L70.0388 11.73Z" fill="#FA4776"/>
<path d="M82.0388 0V7.08H82.4831L83.8991 5.7H88.8691V27.99L87.5919 29.49V30H95.4495V29.49L94.1445 27.99V5.7H99.1423L100.558 7.08H101.003V0H82.0388Z" fill="#FA4776"/>
<path d="M103.79 0V0.479999L105.067 2.01L112.147 30H118.506L125.169 2.01L126.447 0.479999V0H118.422V0.479999L119.727 2.01L115.257 20.67L110.537 2.01L111.814 0.479999V0H103.79Z" fill="#FA4776"/>
</g>
<defs>
<filter id="filter0_i_1_45" x="0.603638" y="0" width="125.843" height="34" filterUnits="userSpaceOnUse" color-interpolation-filters="sRGB">
<feFlood flood-opacity="0" result="BackgroundImageFix"/>
<feBlend mode="normal" in="SourceGraphic" in2="BackgroundImageFix" result="shape"/>
<feColorMatrix in="SourceAlpha" type="matrix" values="0 0 0 0 0 0 0 0 0 0 0 0 0 0 0 0 0 0 127 0" result="hardAlpha"/>
<feOffset dy="4"/>
<feGaussianBlur stdDeviation="2"/>
<feComposite in2="hardAlpha" operator="arithmetic" k2="-1" k3="1"/>
<feColorMatrix type="matrix" values="0 0 0 0 0 0 0 0 0 0 0 0 0 0 0 0 0 0 0.35 0"/>
<feBlend mode="normal" in2="shape" result="effect1_innerShadow_1_45"/>
</filter>
</defs>
</svg>
