<svg width="18" height="20" viewBox="0 0 18 20" fill="none" xmlns="http://www.w3.org/2000/svg">
<path fill-rule="evenodd" clip-rule="evenodd" d="M15.2346 11.3371C15.3755 12.1675 15.5159 12.8594 15.7953 13.6894L16.6329 16.0408L15.9434 17.012L11.0973 17.0261C11.0993 17.7184 10.8244 18.4115 10.2721 18.967C9.71992 19.5225 9.02842 19.8014 8.33611 19.8034C7.64381 19.8054 6.81224 19.5309 6.39524 18.9783C5.83979 18.4261 5.56085 17.7346 5.55884 17.0423L0.712703 17.0564L0.0175776 16.0891L0.841493 13.7329C1.11519 12.6244 1.38889 11.5159 1.38567 10.4082L1.3768 7.36207C1.37398 6.39284 1.50962 5.42321 1.92259 4.59124C2.33515 3.6208 2.88698 2.92689 3.57727 2.23257C4.26756 1.53825 5.09712 1.12045 6.06554 0.840706C6.75704 0.561769 7.5874 0.420891 8.2797 0.418876C8.00399 0.835065 7.72868 1.38971 7.45337 1.94436C7.17645 1.94517 6.89953 1.94598 6.48495 2.22411C5.79305 2.36458 5.10195 2.78198 4.54972 3.33744C3.99708 3.75443 3.44526 4.44835 3.17035 5.14146C2.89544 5.83457 2.75899 6.52728 2.76141 7.35804L2.77028 10.4042C2.7739 11.6503 2.50061 12.8973 2.22731 14.1442L1.6779 15.6689L14.9702 15.6302L14.4119 14.1088C14.1674 13.3812 14.0279 12.5453 13.9025 11.7924L13.8504 11.4796C14.4042 11.478 14.8196 11.4768 15.2346 11.3371ZM8.33208 18.4188C8.60901 18.418 9.02399 18.2783 9.3001 18.0006C9.57622 17.7229 9.71387 17.4455 9.71267 17.0302L6.94345 17.0382C6.94465 17.4536 7.08392 17.7301 7.36165 18.0062C7.63938 18.2824 8.05516 18.4196 8.33208 18.4188ZM17.9841 4.5445C17.9873 5.64616 17.5527 6.70398 16.776 7.48524C15.9993 8.2665 14.944 8.70721 13.8423 8.71042C12.7407 8.71362 11.6828 8.27906 10.9016 7.50234C10.1203 6.72561 9.67961 5.67034 9.6764 4.56868C9.6732 3.46701 10.1078 2.4092 10.8845 1.62793C11.6612 0.846674 12.7165 0.405965 13.8181 0.402759C14.9198 0.399553 15.9776 0.834112 16.7589 1.61084C17.5401 2.38757 17.9809 3.44284 17.9841 4.5445Z" fill="white"/>
</svg>
