<svg width="26" height="22" viewBox="0 0 26 22" fill="none" xmlns="http://www.w3.org/2000/svg">
<g filter="url(#filter0_d_1_42)">
<path d="M21.7316 16.528L18.3218 13.1479C19.4147 11.7472 20.0049 10.0196 19.9975 8.243C19.9929 6.66075 19.5192 5.11541 18.6363 3.80238C17.7534 2.48935 16.501 1.46761 15.0375 0.866364C13.5739 0.265119 11.9649 0.111374 10.414 0.424571C8.86303 0.737767 7.43979 1.50384 6.32423 2.62591C5.20867 3.74798 4.4509 5.17566 4.14673 6.7284C3.84257 8.28114 4.00568 9.8892 4.61543 11.3492C5.22518 12.8093 6.25419 14.0557 7.57234 14.9309C8.89048 15.8062 10.4386 16.2708 12.0208 16.2662C13.7975 16.2633 15.5215 15.663 16.9159 14.562L20.3157 17.9521C20.409 18.0456 20.5198 18.1196 20.6418 18.1701C20.7638 18.2205 20.8946 18.2462 21.0266 18.2458C21.1586 18.2455 21.2892 18.2189 21.411 18.1678C21.5327 18.1167 21.6431 18.042 21.7357 17.948C21.8292 17.8547 21.9033 17.7439 21.9537 17.6219C22.0041 17.4999 22.0299 17.3691 22.0295 17.2371C22.0291 17.1051 22.0026 16.9745 21.9514 16.8528C21.9003 16.7311 21.8256 16.6207 21.7316 16.528ZM5.99755 8.28374C5.9941 7.09706 6.34261 5.936 6.99903 4.94739C7.65544 3.95878 8.59027 3.18702 9.6853 2.72971C10.7803 2.27239 11.9864 2.15006 13.1509 2.37818C14.3155 2.60631 15.3862 3.17464 16.2278 4.01131C17.0694 4.84798 17.6439 5.91541 17.8788 7.07862C18.1137 8.24182 17.9984 9.44856 17.5475 10.5462C17.0965 11.6439 16.3302 12.5832 15.3454 13.2454C14.3607 13.9075 13.2017 14.2628 12.015 14.2663C10.4237 14.2709 8.89574 13.6432 7.76725 12.5212C6.63876 11.3993 6.00218 9.87503 5.99755 8.28374Z" fill="#F8F8F8"/>
</g>
<defs>
<filter id="filter0_d_1_42" x="-0.00247192" y="0.266275" width="26.032" height="25.9796" filterUnits="userSpaceOnUse" color-interpolation-filters="sRGB">
<feFlood flood-opacity="0" result="BackgroundImageFix"/>
<feColorMatrix in="SourceAlpha" type="matrix" values="0 0 0 0 0 0 0 0 0 0 0 0 0 0 0 0 0 0 127 0" result="hardAlpha"/>
<feOffset dy="4"/>
<feGaussianBlur stdDeviation="2"/>
<feComposite in2="hardAlpha" operator="out"/>
<feColorMatrix type="matrix" values="0 0 0 0 0 0 0 0 0 0 0 0 0 0 0 0 0 0 0.25 0"/>
<feBlend mode="normal" in2="BackgroundImageFix" result="effect1_dropShadow_1_42"/>
<feBlend mode="normal" in="SourceGraphic" in2="effect1_dropShadow_1_42" result="shape"/>
</filter>
</defs>
</svg>
